<?xml version="1.0" standalone="no"?>
<!DOCTYPE svg PUBLIC "-//W3C//DTD SVG 20010904//EN"
 "http://www.w3.org/TR/2001/REC-SVG-20010904/DTD/svg10.dtd">
<svg version="1.0" xmlns="http://www.w3.org/2000/svg"
 width="426.000000pt" height="244.000000pt" viewBox="0 0 426.000000 244.000000"
 preserveAspectRatio="xMidYMid meet">

<g transform="translate(0.000000,244.000000) scale(0.100000,-0.100000)"
fill="#000000" stroke="none">
<path d="M465 1840 c-18 -18 -20 -29 -14 -113 5 -77 11 -103 35 -146 30 -56
67 -91 93 -90 10 0 12 2 3 6 -6 2 -10 9 -7 13 3 5 12 7 20 3 8 -3 15 0 15 6 0
6 -5 11 -11 11 -5 0 -9 8 -7 18 1 9 -1 23 -6 30 -4 7 -5 16 -1 20 3 3 10 0 15
-8 5 -8 12 -11 17 -7 4 5 1 12 -6 16 -10 6 -11 14 -3 27 15 26 -17 92 -38 79
-4 -2 -7 2 -7 10 0 12 3 12 16 2 12 -10 14 -9 7 8 -17 43 -34 105 -29 105 3 0
0 7 -7 15 -18 21 -62 19 -85 -5z m125 -165 c7 -8 9 -15 6 -15 -4 0 -14 7 -22
15 -9 8 -11 15 -6 15 5 0 15 -7 22 -15z m0 -39 c0 -8 -4 -18 -10 -21 -5 -3
-10 3 -10 14 0 12 5 21 10 21 6 0 10 -6 10 -14z m-27 -113 c-3 -7 -9 -10 -14
-7 -5 3 -6 10 -3 16 5 7 1 9 -9 5 -12 -4 -14 -2 -10 10 5 12 3 14 -7 8 -9 -5
-11 -4 -6 3 10 16 55 -18 49 -35z"/>
<path d="M620 1555 c-7 -9 -8 -15 -2 -15 5 0 12 7 16 15 3 8 4 15 2 15 -2 0
-9 -7 -16 -15z"/>
<path d="M222 1377 c-24 -108 -33 -207 -33 -367 0 -239 38 -412 99 -456 15
-12 61 -31 102 -43 80 -24 142 -59 133 -75 -4 -5 1 -7 9 -3 21 8 31 -3 17 -19
-6 -7 -7 -19 -3 -26 4 -6 8 -24 9 -38 1 -14 2 -42 3 -62 1 -20 9 -44 18 -52
14 -14 17 -14 31 -1 12 12 18 13 29 4 8 -7 17 -9 21 -5 3 3 0 6 -8 6 -12 0
-11 2 1 11 13 10 13 10 0 7 -8 -3 -23 3 -32 13 -15 16 -15 18 2 34 14 13 19
13 23 3 3 -7 6 -8 6 -3 1 20 -16 36 -32 29 -9 -3 -17 -10 -17 -15 0 -5 -5 -9
-12 -9 -6 0 -4 8 6 19 14 15 15 24 7 40 -10 17 -9 20 4 15 10 -4 15 0 15 14 0
16 -5 19 -22 14 -19 -5 -21 -3 -11 9 8 10 9 20 3 29 -14 22 -12 30 5 24 22 -9
18 16 -7 37 -17 16 -18 19 -5 19 18 0 22 11 10 24 -10 9 -11 122 -3 174 5 26
4 42 -3 42 -5 0 -4 7 3 15 10 12 10 15 0 15 -10 0 -10 3 0 15 7 8 9 15 4 15
-11 0 -12 101 -1 118 5 7 3 12 -4 12 -8 0 -8 4 1 15 7 8 9 15 4 15 -14 0 -14
84 -1 92 9 6 8 8 -2 8 -11 0 -11 3 -1 15 10 12 9 15 -6 15 -14 0 -15 3 -6 12
9 9 7 14 -6 25 -16 12 -16 13 1 7 14 -5 17 0 17 35 0 29 5 44 16 48 10 4 -19
18 -78 38 -91 32 -202 84 -264 125 l-31 20 -11 -53z m333 -885 c-3 -3 -15 -6
-27 -7 -20 -2 -20 -1 -3 11 17 13 43 9 30 -4z m5 -28 c0 -8 -19 -13 -24 -6 -3
5 1 9 9 9 8 0 15 -2 15 -3z m20 -108 c0 -3 -4 -8 -10 -11 -5 -3 -10 -1 -10 4
0 6 5 11 10 11 6 0 10 -2 10 -4z m40 -96 c0 -5 -2 -10 -4 -10 -2 0 -12 -3 -22
-7 -16 -6 -17 -5 -4 10 17 19 30 22 30 7z"/>
<path d="M605 1230 c4 -6 11 -8 16 -5 14 9 11 15 -7 15 -8 0 -12 -5 -9 -10z"/>
<path d="M3727 1122 c-15 -3 -16 -6 -6 -18 11 -13 8 -14 -17 -9 -27 6 -28 5
-11 -8 10 -9 14 -18 9 -21 -16 -10 -1 -46 19 -46 11 0 19 -4 19 -10 0 -5 -5
-10 -11 -10 -6 0 -10 -18 -9 -42 1 -24 1 -45 0 -48 -8 -19 -6 -70 2 -70 6 0 5
-7 -3 -16 -10 -13 -10 -17 2 -25 12 -8 11 -12 -4 -23 -12 -9 -14 -16 -7 -21
11 -7 11 -85 1 -85 -4 0 -7 -11 -7 -25 -1 -15 3 -25 12 -25 10 0 11 -6 4 -24
-6 -17 -5 -26 3 -30 8 -3 2 -14 -16 -30 -15 -14 -26 -26 -23 -26 3 0 42 12 88
26 175 55 310 161 339 266 23 86 -38 178 -162 243 -82 43 -196 83 -222 77z"/>
<path d="M3688 1003 c7 -3 16 -2 19 1 4 3 -2 6 -13 5 -11 0 -14 -3 -6 -6z"/>
<path d="M3635 480 c-10 -11 -16 -22 -13 -25 3 -3 13 6 22 20 20 30 16 32 -9
5z"/>
</g>
</svg>
