<?xml version="1.0" standalone="no"?>
<!DOCTYPE svg PUBLIC "-//W3C//DTD SVG 20010904//EN"
 "http://www.w3.org/TR/2001/REC-SVG-20010904/DTD/svg10.dtd">
<svg version="1.0" xmlns="http://www.w3.org/2000/svg"
 width="426.000000pt" height="244.000000pt" viewBox="0 0 426.000000 244.000000"
 preserveAspectRatio="xMidYMid meet">

<g transform="translate(0.000000,244.000000) scale(0.100000,-0.100000)"
fill="#000000" stroke="none">
<path d="M0 1220 l0 -1220 2130 0 2130 0 0 1220 0 1220 -2130 0 -2130 0 0
-1220z m1241 1014 c32 -16 152 -101 429 -303 172 -126 172 -126 253 -140 77
-14 123 -37 154 -77 18 -24 33 -34 52 -34 47 0 130 -30 164 -59 24 -21 50 -31
103 -39 40 -7 100 -25 135 -42 35 -16 73 -30 85 -30 36 0 87 -21 127 -52 27
-21 52 -31 90 -34 61 -6 142 -29 176 -51 12 -8 50 -19 83 -23 33 -5 92 -24
132 -44 63 -30 142 -56 450 -147 44 -12 74 -25 68 -27 -7 -2 -9 -9 -5 -15 4
-7 -1 -6 -10 2 -16 12 -17 12 -10 -5 6 -16 4 -17 -9 -7 -8 7 -17 10 -21 7 -9
-10 4 -34 19 -34 17 0 18 -16 2 -26 -7 -5 -8 -3 -3 6 5 9 4 11 -4 6 -9 -6 -9
-11 -1 -21 8 -10 7 -16 -7 -24 -15 -10 -14 -10 8 -5 32 7 46 -18 21 -38 -8 -7
-13 -8 -9 -2 3 6 0 11 -8 11 -12 0 -12 -3 -2 -15 14 -18 19 -122 5 -122 -5 0
-7 4 -4 8 2 4 -4 8 -15 8 -18 0 -18 -2 -5 -12 9 -6 13 -14 9 -18 -4 -4 1 -4
12 0 11 4 17 4 13 -1 -4 -4 0 -14 10 -22 9 -8 12 -12 6 -9 -7 3 -14 -3 -17
-14 -4 -14 -11 -18 -24 -14 -14 5 -15 4 -3 -4 8 -6 18 -8 24 -5 5 4 7 -1 3
-10 -4 -10 0 -20 11 -26 12 -7 13 -10 3 -11 -7 0 -11 -6 -7 -15 3 -8 1 -15 -4
-15 -6 0 -10 5 -10 12 0 6 -3 8 -7 4 -12 -12 -12 -40 0 -55 9 -11 9 -15 0 -18
-10 -3 -9 -9 3 -21 15 -15 15 -17 -5 -26 -23 -10 -27 -21 -11 -31 6 -4 7 -11
4 -17 -4 -7 -2 -8 4 -4 16 10 15 39 0 30 -7 -4 -10 -3 -5 1 4 5 17 10 28 12
21 3 21 2 4 -23 -22 -33 -15 -39 30 -24 20 7 38 10 40 8 3 -2 -26 -14 -63 -26
-62 -20 -69 -25 -94 -70 -26 -46 -27 -55 -21 -130 6 -85 -5 -119 -34 -108 -8
3 -11 1 -8 -4 4 -6 -7 -10 -24 -10 -40 0 -67 36 -82 108 -9 46 -19 65 -52 95
-35 35 -44 38 -81 35 -154 -16 -405 -39 -476 -44 l-86 -5 -32 -47 c-29 -43
-32 -55 -32 -120 0 -82 -18 -112 -69 -112 -51 0 -71 27 -82 110 -9 66 -15 80
-47 115 -53 56 -48 55 -152 55 -52 0 -135 5 -185 9 -270 27 -420 42 -510 52
-55 6 -285 12 -512 13 l-412 3 -18 -26 c-11 -14 -22 -34 -26 -44 -4 -11 -12
-15 -19 -11 -10 6 -11 5 -1 -8 19 -22 11 -113 -12 -138 -23 -25 -76 -27 -97
-2 -17 18 -29 92 -16 92 4 0 8 -15 8 -32 0 -38 8 -52 33 -61 13 -5 16 -3 10 6
-11 18 -12 37 -2 37 6 0 8 4 4 9 -3 5 -1 12 5 16 6 4 8 11 4 16 -7 13 19 7 28
-6 5 -7 8 -7 8 0 0 19 -15 31 -37 31 -17 0 -22 -5 -18 -17 3 -9 -1 -19 -8 -22
-8 -3 -13 1 -12 12 2 25 14 41 28 35 7 -2 13 3 13 13 1 10 4 31 7 46 5 25 4
27 -9 16 -8 -7 -13 -18 -10 -24 2 -7 0 -18 -6 -26 -8 -11 -9 -11 -5 2 3 9 1
22 -3 30 -6 8 -5 16 2 20 8 5 7 17 -5 40 -11 24 -13 37 -5 46 7 9 7 13 -1 13
-7 0 -9 5 -6 10 4 6 10 8 14 5 9 -5 6 38 -3 54 -4 5 -2 12 4 16 6 4 4 15 -6
31 -15 22 -15 24 0 18 9 -3 16 -1 16 5 0 6 -8 11 -17 11 -15 0 -16 2 -3 9 8 6
18 7 24 4 5 -3 6 -1 2 6 -4 6 -12 9 -17 6 -5 -4 -9 -2 -9 4 0 5 6 11 13 14 9
3 9 7 -2 20 -11 14 -11 17 0 17 10 1 9 5 -4 14 -13 10 -15 15 -5 18 10 4 10 9
-2 23 -14 17 -13 18 2 12 10 -3 18 -2 18 3 0 6 -5 10 -11 10 -5 0 -7 5 -4 10
4 6 11 7 17 4 7 -4 8 -2 4 5 -4 6 -12 9 -17 6 -5 -4 -9 -1 -9 4 0 6 5 11 10
11 7 0 7 6 0 20 -8 15 -8 20 2 20 9 0 9 3 0 12 -18 18 -15 31 6 24 11 -4 8 1
-8 15 -17 14 -19 19 -7 15 9 -3 17 -1 17 4 0 6 -4 10 -8 10 -5 0 -9 7 -9 15 0
11 4 12 13 4 9 -8 11 -5 7 11 -4 14 -11 19 -21 15 -12 -4 -13 -3 -2 10 7 8 9
15 4 15 -4 0 0 6 11 13 14 11 15 16 5 22 -9 5 -11 4 -6 -3 4 -7 2 -12 -4 -12
-7 0 -9 8 -5 20 4 13 2 20 -7 20 -10 0 -10 2 1 9 8 5 11 16 8 25 -3 8 -2 18 3
21 13 8 0 36 -14 29 -6 -3 -2 2 9 10 11 9 25 14 33 11 7 -3 10 0 7 6 -4 6 -14
8 -22 4 -13 -4 -14 -3 -4 9 15 17 8 22 -60 42 -75 23 -55 26 24 4 186 -52 356
-48 397 10 11 15 20 35 20 44 0 16 -5 17 -140 36 -127 18 -269 68 -255 90 3 5
0 12 -6 15 -5 4 -8 14 -5 22 4 11 2 13 -9 9 -8 -3 -15 -2 -15 3 0 5 9 11 20
14 11 3 18 1 15 -3 -3 -5 -1 -11 5 -15 19 -12 10 24 -10 38 -18 12 -18 15 -4
33 8 10 13 14 10 9 -2 -6 7 -11 22 -12 15 0 19 1 10 4 -12 3 -16 13 -14 36 2
20 -3 36 -13 44 -12 9 -13 14 -4 24 6 6 9 18 6 26 -3 8 18 -11 48 -42 88 -93
187 -132 360 -142 70 -4 124 -2 160 7 56 13 179 61 178 70 0 3 -20 19 -44 35
-138 93 -308 220 -325 242 -35 45 -27 101 26 180 121 176 167 208 245 167z
m-781 -398 c0 -2 -7 -9 -15 -16 -13 -11 -14 -10 -9 4 5 14 24 23 24 12z m107
-28 c-3 -7 -5 -2 -5 12 0 14 2 19 5 13 2 -7 2 -19 0 -25z m-120 -40 c-3 -7 -5
-2 -5 12 0 14 2 19 5 13 2 -7 2 -19 0 -25z m145 -136 c-7 -2 -9 -9 -6 -14 4
-7 2 -8 -4 -4 -6 4 -9 13 -6 21 4 8 11 12 17 8 8 -5 7 -8 -1 -11z m-53 -126
c30 -32 32 -36 10 -22 -25 16 -79 86 -79 103 0 4 7 -4 16 -17 10 -14 33 -42
53 -64z m37 -344 c1 -15 -1 -21 -3 -14 -3 6 -9 9 -15 6 -6 -4 -5 2 1 15 15 27
16 27 17 -7z m3214 -42 c13 -8 13 -10 -2 -10 -9 0 -20 5 -23 10 -8 13 5 13 25
0z m-30 -46 c0 -8 -19 -13 -24 -6 -3 5 1 9 9 9 8 0 15 -2 15 -3z m-30 -398 c0
-2 -7 -6 -15 -10 -8 -3 -15 -1 -15 4 0 6 7 10 15 10 8 0 15 -2 15 -4z m-3215
-227 c14 -22 -3 -18 -26 7 -23 25 -23 26 -2 15 12 -6 25 -16 28 -22z m42 -32
c0 -8 -6 -14 -14 -14 -9 0 -10 4 -2 14 6 7 12 13 14 13 1 0 2 -6 2 -13z m11
-61 c15 5 15 4 2 -5 -23 -16 -30 -13 -29 12 1 16 3 17 6 5 3 -11 11 -15 21
-12z"/>
<path d="M590 1679 c0 -5 5 -7 10 -4 6 3 10 8 10 11 0 2 -4 4 -10 4 -5 0 -10
-5 -10 -11z"/>
<path d="M620 1555 c-7 -9 -8 -15 -2 -15 5 0 12 7 16 15 3 8 4 15 2 15 -2 0
-9 -7 -16 -15z"/>
<path d="M580 1496 c0 -2 7 -7 16 -10 8 -3 12 -2 9 4 -6 10 -25 14 -25 6z"/>
<path d="M1760 1223 c-96 -113 -240 -279 -319 -370 -79 -90 -142 -166 -140
-167 2 -2 62 -13 133 -25 106 -18 132 -20 141 -9 7 7 106 123 220 258 115 135
234 274 264 310 97 112 112 133 104 141 -7 6 -215 70 -224 68 -2 0 -83 -93
-179 -206z"/>
<path d="M2110 1068 c-366 -429 -383 -449 -379 -452 2 -2 60 -13 128 -25 101
-18 127 -19 136 -9 6 7 92 107 190 223 313 368 349 410 367 431 12 14 14 21 6
21 -11 0 -100 24 -218 59 -11 3 -86 -78 -230 -248z"/>
<path d="M2573 1046 c-75 -89 -202 -237 -281 -329 -80 -92 -143 -169 -141
-171 8 -6 237 -38 252 -34 14 3 51 45 372 418 87 102 163 188 169 192 16 11 9
14 -116 51 l-118 34 -137 -161z"/>
<path d="M589 487 c6 -8 8 -17 4 -20 -3 -4 2 -7 11 -7 12 0 16 5 12 16 -3 9
-6 18 -6 20 0 2 -7 4 -16 4 -13 0 -14 -3 -5 -13z"/>
<path d="M3630 468 c-12 -22 -12 -22 6 -6 10 10 15 20 12 24 -4 3 -12 -5 -18
-18z"/>
<path d="M617 277 c-7 -19 8 -43 17 -28 4 6 2 11 -5 11 -8 0 -8 4 1 15 7 9 8
15 2 15 -5 0 -12 -6 -15 -13z"/>
<path d="M660 281 c0 -5 5 -13 10 -16 6 -3 10 -2 10 4 0 5 -4 13 -10 16 -5 3
-10 2 -10 -4z"/>
</g>
</svg>
